<svg width="50" height="48" viewBox="0 0 50 48" fill="none" xmlns="http://www.w3.org/2000/svg">
<path d="M19.9253 20.1311C17.1856 20.1311 14.8402 19.1455 12.8892 17.1743C10.9381 15.2031 9.96264 12.8336 9.96264 10.0655C9.96264 7.29751 10.9381 4.92792 12.8892 2.95675C14.8402 0.985584 17.1856 0 19.9253 0C22.665 0 25.0104 0.985584 26.9614 2.95675C28.9124 4.92792 29.8879 7.29751 29.8879 10.0655C29.8879 12.8336 28.9124 15.2031 26.9614 17.1743C25.0104 19.1455 22.665 20.1311 19.9253 20.1311ZM45.8281 47.308L39.6015 41.017C38.7298 41.5203 37.7958 41.9397 36.7995 42.2752C35.8032 42.6107 34.7447 42.7785 33.6239 42.7785C30.5106 42.7785 27.8647 41.678 25.6862 39.477C23.5077 37.276 22.4176 34.6019 22.4159 31.4548C22.4143 28.3076 23.5044 25.6344 25.6862 23.4351C27.868 21.2358 30.5139 20.1344 33.6239 20.1311C36.7339 20.1277 39.3807 21.229 41.5641 23.4351C43.7476 25.6411 44.8369 28.3143 44.8319 31.4548C44.8319 32.5872 44.6658 33.6566 44.3337 34.6632C44.0017 35.6697 43.5865 36.6134 43.0884 37.4941L49.3151 43.7851C49.7717 44.2464 50 44.8336 50 45.5465C50 46.2595 49.7717 46.8467 49.3151 47.308C48.8584 47.7693 48.2773 48 47.5716 48C46.8659 48 46.2848 47.7693 45.8281 47.308ZM33.6239 37.7457C35.3674 37.7457 36.841 37.1376 38.0448 35.9214C39.2486 34.7051 39.8506 33.2163 39.8506 31.4548C39.8506 29.6933 39.2486 28.2045 38.0448 26.9882C36.841 25.772 35.3674 25.1638 33.6239 25.1638C31.8804 25.1638 30.4068 25.772 29.203 26.9882C27.9992 28.2045 27.3973 29.6933 27.3973 31.4548C27.3973 33.2163 27.9992 34.7051 29.203 35.9214C30.4068 37.1376 31.8804 37.7457 33.6239 37.7457ZM4.98132 40.2621C3.61146 40.2621 2.43919 39.7698 1.46451 38.785C0.48983 37.8003 0.00166044 36.615 0 35.2294V33.2792C0 31.8532 0.352843 30.5321 1.05853 29.3159C1.76422 28.0996 2.73973 27.1769 3.98506 26.5478C5.85305 25.5832 7.91864 24.7553 10.1818 24.0642C12.445 23.373 14.9249 22.9217 17.6214 22.7104C18.1196 22.6684 18.4931 22.8781 18.7422 23.3394C18.9913 23.8008 19.012 24.2831 18.8045 24.7864C18.3479 25.8349 18.005 26.9152 17.7758 28.0275C17.5467 29.1397 17.433 30.2612 17.4346 31.3919C17.4346 32.4823 17.5284 33.5836 17.7161 34.6959C17.9037 35.8081 18.225 36.8667 18.6799 37.8716C18.929 38.4587 18.9083 39.0039 18.6177 39.5072C18.3271 40.0105 17.8912 40.2621 17.3101 40.2621H4.98132Z" fill="white"/>
</svg>
